<svg xmlns="http://www.w3.org/2000/svg" width="111" height="27" viewBox="0 0 111 27" fill="none">
  <path fill-rule="evenodd" clip-rule="evenodd" d="M28.6664 7.45157C28.6664 3.0599 24.0211 0.958984 18.5004 0.958984C12.6 0.958984 7.19539 3.5614 5.20922 7.62582C4.65104 8.71134 4.35966 9.91428 4.35922 11.1349C4.34302 12.182 4.63892 13.2103 5.20922 14.0886C5.74208 14.793 6.44519 15.3503 7.25253 15.7084C8.05987 16.0665 8.94497 16.2135 9.82472 16.1357C12.5419 16.1357 14.7321 14.644 14.7321 12.0132C14.7339 11.9092 14.7134 11.8059 14.6717 11.7105C14.6301 11.6151 14.5684 11.5298 14.4908 11.4605C14.4132 11.3911 14.3216 11.3392 14.2222 11.3085C14.1227 11.2777 14.0178 11.2688 13.9146 11.2822C13.2134 11.2822 13.0391 11.7795 13.0646 12.0132C13.1275 12.4805 13.0887 12.9558 12.9511 13.4067C12.8134 13.8576 12.5801 14.2735 12.267 14.626C11.9539 14.9785 11.5685 15.2592 11.137 15.4491C10.7054 15.639 10.238 15.7336 9.76664 15.7263C7.34272 15.7263 6.31989 13.6495 6.31989 11.4282C6.31989 6.89482 9.7383 3.91273 13.2729 2.59665C14.9348 1.97504 16.6978 1.6676 18.4721 1.68998C22.5039 1.68998 25.775 3.23982 25.775 7.35665C25.7237 9.05915 25.044 10.6824 23.8669 11.9135C22.6897 13.1445 21.0985 13.8961 19.4 14.0235L19.5416 13.556C20.1381 10.9534 21.1544 8.46527 22.5506 6.18932C22.6589 6.00114 22.7861 5.82455 22.9303 5.66232L22.7263 5.42857C22.4159 5.60641 22.1224 5.8122 21.8494 6.0434C15.1911 11.2199 14.9842 25.8413 6.13289 25.8413C5.82996 25.8521 5.5267 25.8327 5.22764 25.7832C4.42114 25.7155 3.67315 25.3349 3.14366 24.7228C2.61417 24.1107 2.34521 23.3157 2.3943 22.5079C2.3943 22.1863 2.51189 21.7188 2.51189 21.4553C2.51779 21.3358 2.49959 21.2163 2.45837 21.1039C2.41714 20.9915 2.35374 20.8886 2.27192 20.8012C2.19011 20.7139 2.09156 20.6438 1.98213 20.5953C1.87271 20.5468 1.75465 20.5208 1.63497 20.5189H1.55705C0.76797 20.5189 0.446386 21.1621 0.42372 22.039C0.365636 24.6414 2.26539 26.1332 5.21489 26.4306C5.53647 26.4306 5.85805 26.4604 6.20655 26.4604C13.1298 26.4604 17.3656 21.2258 19.1776 14.8806C20.0892 14.759 20.9894 14.5633 21.8692 14.2955C25.0822 13.4186 28.6692 11.2539 28.6692 7.45298" fill="#C4C4C4"/>
  <path fill-rule="evenodd" clip-rule="evenodd" d="M67.4675 13.9622C67.08 16.262 66.1926 18.4488 64.8679 20.3683C64.3423 21.1574 63.8762 21.36 63.4668 21.36C62.8831 21.36 62.7372 20.8925 62.8236 20.2267C63.2302 18.0977 64.0755 16.0767 65.3056 14.2922C65.9488 13.4153 66.3568 13.064 66.854 13.064C67.3216 13.064 67.4675 13.4734 67.4675 13.9707M40.5409 20.6942C40.191 20.6942 39.9275 20.5766 39.9275 20.1091C40.2314 18.2675 41.0059 16.5357 42.1757 15.0813C42.5222 14.52 42.9913 14.0444 43.5477 13.6902C44.1041 13.3359 44.7335 13.1122 45.3887 13.0357L43.8417 16.4852C42.673 19.1457 41.4759 20.6942 40.5409 20.6942ZM25.3542 20.6942C25.0043 20.6942 24.7706 20.5766 24.7706 20.1091C25.1007 18.2755 25.8723 16.5499 27.0188 15.0813C27.3653 14.52 27.8344 14.0444 28.3908 13.6902C28.9472 13.3359 29.5766 13.1122 30.2318 13.0357L28.7131 16.4852C27.5444 19.0862 26.2892 20.6942 25.3542 20.6942ZM94.5385 8.97266H92.0849L91.5593 10.259L90.596 12.4222H89.4626L89.1127 13.1532H90.3098L88.879 16.2812C87.8561 18.5026 86.2794 20.6729 85.3741 20.6729C85.1701 20.6729 85.0525 20.5851 85.0525 20.3811C85.0857 20.0565 85.1749 19.7402 85.3161 19.4461C85.6079 18.7732 86.0754 17.8084 86.4253 17.0788C87.0391 16.0144 87.4827 14.8605 87.74 13.659C87.7503 13.4633 87.7185 13.2676 87.6465 13.0853C87.5746 12.903 87.4642 12.7383 87.323 12.6024C87.1817 12.4666 87.0129 12.3627 86.8279 12.2979C86.643 12.233 86.4462 12.2088 86.2511 12.2267C85.6525 12.2775 85.0709 12.4517 84.543 12.7384C84.0151 13.0252 83.5524 13.4182 83.184 13.8927L83.7974 12.4307H81.4854L79.6168 16.6694C78.8858 18.1725 77.3671 20.6517 76.4038 20.6517C76.1998 20.6517 76.112 20.5341 76.112 20.3301C76.1318 20.1486 76.1796 19.9713 76.2536 19.8045C76.3415 19.6288 77.4507 16.9981 77.4507 16.9981L79.4652 12.35H77.0116L75.0282 16.8833C74.4446 18.2858 72.9032 20.6545 71.903 20.6545C71.8605 20.6609 71.817 20.6582 71.7756 20.6467C71.7341 20.6351 71.6956 20.6148 71.6625 20.5872C71.6294 20.5597 71.6026 20.5254 71.5837 20.4867C71.5649 20.448 71.5545 20.4057 71.5531 20.3627V20.3046C71.6012 19.9478 71.7099 19.6018 71.8747 19.2817L72.8975 17.0023L75.0225 12.3542H72.5689L72.1014 13.4068C71.9492 13.82 71.6861 14.1832 71.341 14.4567C70.9958 14.7301 70.582 14.9031 70.145 14.9567C69.6775 14.9567 69.4437 14.781 69.3573 14.6053C69.3557 14.2736 69.2858 13.9457 69.152 13.6421C69.0181 13.3386 68.8232 13.0659 68.5793 12.841C68.3354 12.6161 68.0478 12.4438 67.7344 12.335C67.421 12.2261 67.0885 12.183 66.7577 12.2083C65.8554 12.2329 64.9748 12.4909 64.202 12.9572C63.4291 13.4235 62.7902 14.0821 62.3476 14.8688C61.7028 15.8618 61.2105 16.9458 60.887 18.0847C60.0115 19.5169 59.1049 20.6347 58.3753 20.6347C58.3316 20.6411 58.287 20.6372 58.245 20.6233C58.2031 20.6094 58.1649 20.5859 58.1337 20.5547C58.1024 20.5234 58.0789 20.4853 58.065 20.4434C58.0512 20.4014 58.0473 20.3568 58.0537 20.3131C58.1123 19.9687 58.2207 19.6347 58.3753 19.3214L59.9818 15.9016C60.3814 15.146 60.6387 14.3234 60.7411 13.4748C60.7446 13.3014 60.7115 13.1292 60.644 12.9694C60.5766 12.8096 60.4763 12.6658 60.3496 12.5473C60.2229 12.4288 60.0728 12.3383 59.9089 12.2816C59.7449 12.2249 59.5709 12.2033 59.3981 12.2182C58.7397 12.2651 58.0976 12.4446 57.5104 12.746C56.9232 13.0474 56.403 13.4644 55.9811 13.9721C56.0291 13.8012 56.0488 13.6237 56.0392 13.4465C56.0623 13.2774 56.0455 13.1052 55.9902 12.9438C55.9349 12.7823 55.8425 12.6361 55.7205 12.5167C55.5986 12.3973 55.4503 12.3082 55.2877 12.2563C55.1251 12.2045 54.9526 12.1915 54.784 12.2182C54.1682 12.2708 53.5707 12.4545 53.0317 12.757C52.4927 13.0595 52.0246 13.4738 51.6589 13.9721L52.3006 12.3939H50.0807L48.1824 16.6609C47.2771 18.6442 45.8463 20.6361 45.0289 20.6361C44.8532 20.6361 44.7371 20.5482 44.7371 20.3145C44.861 19.7183 45.057 19.1393 45.3207 18.5904L47.8325 12.9237C48.0081 12.4846 46.8096 12.2154 45.291 12.2154C43.6791 12.2952 42.1432 12.9247 40.939 13.999C40.4556 14.4889 39.8509 14.8418 39.1866 15.0218C39.0449 15.0218 38.9825 14.934 38.9825 14.8462C38.9825 14.4948 39.8 13.5315 39.8 12.7707C39.8 12.4194 39.6243 12.2154 39.1568 12.2154C38.0643 12.4214 37.0923 13.0384 36.441 13.9395L37.0842 12.3897H34.894L33.0354 16.6524C32.1301 18.6357 30.6412 20.7452 29.8521 20.7452C29.6481 20.7452 29.5306 20.6276 29.5306 20.3938C29.6581 19.7625 29.8747 19.1524 30.1737 18.5819L32.6557 12.9152C32.8314 12.4761 31.6329 12.2069 30.1156 12.2069C29.0142 12.2766 27.9422 12.5909 26.9774 13.1268C26.0126 13.6627 25.1794 14.4069 24.5382 15.3052C23.3332 16.6974 22.5706 18.4173 22.3481 20.2451C22.3153 20.4946 22.3387 20.7483 22.4168 20.9876C22.4949 21.2268 22.6255 21.4456 22.7991 21.6278C22.9728 21.81 23.185 21.951 23.4202 22.0404C23.6555 22.1299 23.9077 22.1656 24.1586 22.1448C24.7824 22.0752 25.3833 21.8688 25.9183 21.5405C26.4533 21.2121 26.9094 20.7698 27.254 20.2451C27.2106 20.408 27.1812 20.5744 27.1661 20.7423C27.1661 21.5612 27.4877 22.1448 28.4808 22.1448C29.0779 22.0513 29.649 21.8343 30.1576 21.5077C30.6662 21.1811 31.1011 20.752 31.4346 20.2479L30.705 21.972H33.0708L35.4012 16.685C36.1605 14.9609 37.036 14.084 37.2698 14.084C37.3576 14.084 37.4115 14.1137 37.4115 14.1718C37.4115 14.3475 37.0318 14.8447 37.0318 15.2825C37.0318 15.7202 37.2655 16.0716 37.937 16.0716C38.5024 16.0287 39.0464 15.8371 39.5138 15.5162C38.3831 16.8575 37.6813 18.5074 37.4993 20.2522C37.4615 20.5026 37.4814 20.7584 37.5577 20.9999C37.6339 21.2414 37.7643 21.4623 37.9391 21.6456C38.1138 21.829 38.3282 21.9699 38.5657 22.0577C38.8033 22.1454 39.0578 22.1777 39.3098 22.1519C39.9433 22.044 40.5479 21.8067 41.0856 21.4547C41.6233 21.1028 42.0826 20.6437 42.435 20.1062C42.4012 20.2996 42.3817 20.4951 42.3769 20.6913C42.3598 20.88 42.3829 21.0702 42.4446 21.2493C42.5063 21.4284 42.6053 21.5924 42.735 21.7306C42.8647 21.8687 43.0221 21.9778 43.197 22.0506C43.3719 22.1235 43.5602 22.1585 43.7496 22.1533C44.7725 22.1533 45.5601 21.5102 46.583 20.2833L45.8236 21.9833H48.2773L50.4972 16.9258C51.4605 14.7342 52.805 13.5641 53.4467 13.5641C53.5884 13.5343 53.7386 13.6817 53.7683 13.8276V13.8857C53.7315 14.137 53.6629 14.3826 53.5643 14.6167L50.3513 22.0117H52.8631L55.1113 16.8677C56.103 14.6464 57.1853 13.5641 57.973 13.5641C58.235 13.5641 58.3229 13.6817 58.3229 13.9437C58.3036 14.2266 58.2345 14.5038 58.1189 14.7626L55.9287 19.4376C55.7179 19.8781 55.5893 20.3534 55.549 20.8401C55.549 21.5711 55.9287 22.1845 57.038 22.1845C58.439 22.1845 59.52 21.1036 60.7468 19.524V19.8456C60.746 20.1862 60.8175 20.5231 60.9566 20.8341C61.0956 21.1451 61.2991 21.423 61.5535 21.6495C61.8079 21.876 62.1074 22.046 62.4323 22.1483C62.7573 22.2505 63.1002 22.2826 63.4385 22.2426C65.6867 22.2426 67.4689 20.7225 68.5781 18.2674C68.9822 17.3978 69.2484 16.4706 69.3672 15.5191C69.6115 15.6386 69.8843 15.6876 70.1549 15.6607C70.5235 15.678 70.8891 15.5864 71.2061 15.3972L70.8264 16.2472C70.3886 17.1822 69.8914 18.2051 69.5117 19.0806C69.2641 19.5941 69.1156 20.1497 69.074 20.7182C69.0541 20.9201 69.0787 21.1238 69.1461 21.3152C69.2134 21.5065 69.3219 21.6807 69.4638 21.8256C69.6057 21.9705 69.7777 22.0826 69.9676 22.1539C70.1575 22.2252 70.3607 22.254 70.5629 22.2383C71.2422 22.1105 71.8881 21.8448 72.4607 21.4577C73.0333 21.0705 73.5204 20.57 73.8921 19.9872C73.8324 20.2561 73.8029 20.5307 73.8042 20.8061C73.8042 21.5371 74.038 22.2383 75.0311 22.2383C75.6386 22.1563 76.2205 21.9407 76.7349 21.6071C77.2493 21.2735 77.6834 20.8301 78.006 20.3088L77.2765 22.0088H79.7301L81.6866 17.5364C82.7958 15.0218 83.9065 13.5017 84.9576 13.5017C85.0413 13.5 85.1229 13.5286 85.1872 13.5822C85.2515 13.6358 85.2942 13.7109 85.3076 13.7936V13.8814C85.0265 14.8305 84.6342 15.743 84.1388 16.6C83.7386 17.4274 83.3606 18.2654 83.0055 19.1132C82.7448 19.6318 82.5957 20.1993 82.5677 20.7792C82.55 20.9639 82.5733 21.1503 82.636 21.325C82.6987 21.4997 82.7992 21.6583 82.9304 21.7896C83.0615 21.9209 83.2201 22.0216 83.3947 22.0845C83.5693 22.1474 83.7557 22.1709 83.9405 22.1533C84.6814 22.0282 85.3873 21.7471 86.0115 21.3288C86.6358 20.9104 87.1641 20.3643 87.5615 19.7266C87.3895 20.2253 87.3009 20.7489 87.2994 21.2764C87.2662 21.5569 87.2955 21.8413 87.3851 22.1091C87.4748 22.3769 87.6227 22.6216 87.8181 22.8255C88.0135 23.0295 88.2516 23.1876 88.5154 23.2887C88.7791 23.3897 89.062 23.4311 89.3436 23.4099C90.1412 23.4005 90.9165 23.1453 91.5636 22.6789C92.4652 21.9731 93.2448 21.1241 93.8713 20.1657L93.4335 19.7563C92.9087 20.5483 92.2689 21.2578 91.5352 21.8615C91.1847 22.1637 90.7425 22.3389 90.28 22.3587C89.7545 22.3587 89.4301 22.0952 89.4301 21.4521C89.5382 20.5079 89.805 19.5888 90.2191 18.7335C90.2191 18.7335 90.8906 17.2134 91.5338 15.7812C92.0594 14.5529 92.585 13.3842 92.6671 13.1504H94.2736L94.5952 12.4194H93.0185L94.5385 8.97266Z" fill="#C4C4C4"/>
  <path fill-rule="evenodd" clip-rule="evenodd" d="M105.308 12.4334L107.537 7.24414H104.896L102.64 12.4334H97.0531L96.104 14.5981H101.713L99.487 19.7278H102.128L104.383 14.5981H109.992L110.911 12.4334H105.308Z" fill="#C4C4C4"/>
</svg>